<svg width="18" height="18" viewBox="0 0 18 18" fill="none" xmlns="http://www.w3.org/2000/svg">
<path d="M9 11.6902L3.29312 17.413C2.93234 17.7717 2.47316 17.9511 1.91558 17.9511C1.35801 17.9511 0.898826 17.7717 0.538043 17.413C0.179348 17.0543 0 16.5978 0 16.0435C0 15.4891 0.179348 15.0326 0.538043 14.6739L6.26087 8.95109L0.538043 3.29322C0.179348 2.9324 0 2.47321 0 1.91563C0 1.35802 0.179348 0.898826 0.538043 0.538043C0.896739 0.179348 1.35326 0 1.90761 0C2.46196 0 2.91848 0.179348 3.27717 0.538043L9 6.26087L14.6579 0.538043C15.0187 0.179348 15.4779 0 16.0355 0C16.5931 0 17.0523 0.179348 17.413 0.538043C17.8043 0.929348 18 1.39402 18 1.93207C18 2.47011 17.8043 2.91848 17.413 3.27717L11.6902 8.95109L17.413 14.658C17.7717 15.0188 17.9511 15.4779 17.9511 16.0355C17.9511 16.5931 17.7717 17.0523 17.413 17.413C17.0217 17.8043 16.5571 18 16.019 18C15.481 18 15.0326 17.8043 14.6739 17.413L9 11.6902Z" fill="white"/>
</svg>
