<svg width="521" height="521" viewBox="0 0 521 521" fill="none" xmlns="http://www.w3.org/2000/svg">
<circle cx="260.367" cy="260.92" r="260" fill="#D95140"/>
<path d="M260.37 153.5C275.479 153.5 288.458 162.606 294.1 175.621L223.635 245.962V190.17C223.635 169.918 240.082 153.5 260.37 153.5Z" fill="white"/>
<path d="M207.561 254.344C207.561 256.757 207.727 259.152 208.052 261.515L189.212 280.323C186.19 272.077 184.602 263.292 184.602 254.344V252.912C184.602 247.848 188.713 243.744 193.785 243.744H198.377C203.449 243.744 207.561 247.848 207.561 252.912V254.344Z" fill="white"/>
<path d="M217.427 316.656L184.765 349.26C181.179 352.841 175.364 352.841 171.778 349.26L165.284 342.777C161.697 339.197 161.697 333.393 165.284 329.813L335.971 159.426C339.557 155.846 345.372 155.846 348.958 159.426L355.452 165.909C359.038 169.489 359.038 175.294 355.452 178.874L297.103 237.12V254.343C297.103 274.595 280.656 291.014 260.368 291.014C255.278 291.014 250.429 289.98 246.021 288.112L234.062 300.05C241.998 304.602 251.056 307.057 260.368 307.057C274.373 307.057 287.805 301.503 297.708 291.618C307.611 281.731 313.175 268.324 313.175 254.343V252.911C313.175 247.848 317.286 243.744 322.359 243.744H326.95C332.023 243.744 336.134 247.848 336.134 252.91V254.343C336.134 274.402 328.152 293.64 313.943 307.823C302.468 319.278 287.693 326.678 271.848 329.103V355.187H248.889V329.103C237.587 327.374 226.83 323.113 217.427 316.656Z" fill="white"/>
</svg>
