<svg width="520" height="521" viewBox="0 0 520 521" fill="none" xmlns="http://www.w3.org/2000/svg">
<circle cx="260" cy="260.92" r="260" fill="#3D4043"/>
<path d="M223.607 190.176C223.607 169.92 239.998 153.5 260.218 153.5C280.437 153.5 296.828 169.92 296.828 190.176V254.358C296.828 274.613 280.437 291.033 260.218 291.033C239.998 291.033 223.607 274.613 223.607 254.358V190.176Z" fill="white"/>
<path d="M207.438 252.759V254.193C207.438 268.195 212.976 281.622 222.833 291.523C232.69 301.423 246.059 306.985 259.999 306.985C273.939 306.985 287.308 301.423 297.165 291.523C307.022 281.622 312.56 268.195 312.56 254.193V252.759C312.56 247.689 316.652 243.578 321.701 243.578H326.271C331.32 243.578 335.412 247.689 335.412 252.758V254.193C335.412 274.282 327.467 293.549 313.324 307.753C301.903 319.225 287.196 326.636 271.425 329.064V346.005C271.425 351.076 267.333 355.187 262.284 355.187H257.714C252.665 355.187 248.573 351.076 248.573 346.005V329.064C232.802 326.636 218.095 319.225 206.674 307.753C192.531 293.549 184.586 274.282 184.586 254.193V252.759C184.586 247.689 188.679 243.578 193.727 243.578H198.297C203.346 243.578 207.438 247.689 207.438 252.759Z" fill="white"/>
</svg>
