<svg width="520" height="520" viewBox="0 0 520 520" fill="none" xmlns="http://www.w3.org/2000/svg">
<rect width="520" height="520" rx="260" fill="#3574E0"/>
<path d="M228.75 259.5C241.182 259.5 253.105 254.575 261.896 245.807C270.686 237.04 275.625 225.149 275.625 212.75C275.625 200.351 270.686 188.46 261.896 179.693C253.105 170.925 241.182 166 228.75 166C216.318 166 204.395 170.925 195.604 179.693C186.814 188.46 181.875 200.351 181.875 212.75C181.875 225.149 186.814 237.04 195.604 245.807C204.395 254.575 216.318 259.5 228.75 259.5ZM150.625 353C150.625 353 135 353 135 337.417C135 321.833 150.625 275.083 228.75 275.083C306.875 275.083 322.5 321.833 322.5 337.417C322.5 353 306.875 353 306.875 353H150.625ZM306.875 189.375C306.875 187.309 307.698 185.327 309.163 183.865C310.628 182.404 312.615 181.583 314.688 181.583H377.188C379.26 181.583 381.247 182.404 382.712 183.865C384.177 185.327 385 187.309 385 189.375C385 191.441 384.177 193.423 382.712 194.885C381.247 196.346 379.26 197.167 377.188 197.167H314.688C312.615 197.167 310.628 196.346 309.163 194.885C307.698 193.423 306.875 191.441 306.875 189.375ZM314.688 228.333C312.615 228.333 310.628 229.154 309.163 230.615C307.698 232.077 306.875 234.059 306.875 236.125C306.875 238.191 307.698 240.173 309.163 241.635C310.628 243.096 312.615 243.917 314.688 243.917H377.188C379.26 243.917 381.247 243.096 382.712 241.635C384.177 240.173 385 238.191 385 236.125C385 234.059 384.177 232.077 382.712 230.615C381.247 229.154 379.26 228.333 377.188 228.333H314.688ZM345.938 275.083C343.865 275.083 341.878 275.904 340.413 277.365C338.948 278.827 338.125 280.809 338.125 282.875C338.125 284.941 338.948 286.923 340.413 288.385C341.878 289.846 343.865 290.667 345.938 290.667H377.188C379.26 290.667 381.247 289.846 382.712 288.385C384.177 286.923 385 284.941 385 282.875C385 280.809 384.177 278.827 382.712 277.365C381.247 275.904 379.26 275.083 377.188 275.083H345.938ZM345.938 321.833C343.865 321.833 341.878 322.654 340.413 324.115C338.948 325.577 338.125 327.559 338.125 329.625C338.125 331.691 338.948 333.673 340.413 335.135C341.878 336.596 343.865 337.417 345.938 337.417H377.188C379.26 337.417 381.247 336.596 382.712 335.135C384.177 333.673 385 331.691 385 329.625C385 327.559 384.177 325.577 382.712 324.115C381.247 322.654 379.26 321.833 377.188 321.833H345.938Z" fill="white"/>
</svg>
