<svg width="600" height="430" viewBox="0 0 600 430" fill="none" xmlns="http://www.w3.org/2000/svg">
<rect width="600" height="430" rx="215" fill="#D95140"/>
<path d="M199.924 173.781L156.969 203.859V267.802L173.42 283.175L218.66 275.155L236.253 248.196L246.992 229.704L308.225 217.45L349.124 229.704L373.8 264.683L427.951 275.155L454.912 264.683V221.683L434.806 187.372L369.916 160.191L273.496 150.388L199.924 173.781Z" fill="white"/>
<path d="M227.57 237.676V246.833H250.418V237.676H227.57ZM214.151 263.639L183.686 272.346L190.112 293.726L220.576 285.02L214.151 263.639ZM159.024 255.538V226.977H136.176V255.538H159.024ZM163.112 213.995C176.569 198.159 216.346 161.75 299.923 161.75V139.471C208.371 139.471 162.508 179.785 145.518 199.781L163.112 213.995ZM299.923 161.75C379.633 161.75 419.722 187.997 435.046 201.34L450.264 184.723C430.835 167.804 385.356 139.471 299.923 139.471V161.75ZM349.428 237.676V243.443H372.276V237.676H349.428ZM385.096 282.872L415.56 287.226L418.873 265.181L388.409 260.827L385.096 282.872ZM463.67 247.794V216.236H440.822V247.794H463.67ZM360.852 237.676C372.276 237.676 372.276 237.661 372.276 237.646C372.276 237.64 372.276 237.625 372.276 237.615C372.276 237.594 372.276 237.573 372.276 237.552C372.275 237.509 372.275 237.465 372.273 237.419C372.272 237.327 372.269 237.228 372.264 237.123C372.253 236.914 372.238 236.679 372.214 236.422C372.167 235.907 372.084 235.298 371.946 234.608C371.67 233.227 371.173 231.537 370.299 229.662C368.514 225.835 365.332 221.625 359.988 217.806C349.539 210.341 331.445 204.77 299.923 204.77V227.05C329.33 227.05 341.701 232.361 346.483 235.779C348.756 237.402 349.382 238.634 349.501 238.888C349.579 239.052 349.559 239.063 349.519 238.873C349.501 238.779 349.478 238.637 349.46 238.441C349.451 238.342 349.443 238.231 349.437 238.103C349.434 238.039 349.432 237.973 349.431 237.901C349.429 237.866 349.429 237.829 349.428 237.791C349.428 237.772 349.428 237.754 349.428 237.735C349.428 237.725 349.428 237.71 349.428 237.705C349.428 237.69 349.428 237.676 360.852 237.676ZM299.923 204.77C268.401 204.77 250.306 210.341 239.858 217.806C234.514 221.625 231.332 225.835 229.547 229.662C228.672 231.537 228.176 233.227 227.9 234.608C227.762 235.298 227.68 235.907 227.631 236.422C227.607 236.679 227.592 236.914 227.582 237.123C227.578 237.228 227.574 237.327 227.572 237.419C227.571 237.465 227.571 237.509 227.57 237.552C227.57 237.573 227.57 237.594 227.57 237.615C227.57 237.625 227.57 237.641 227.57 237.646C227.57 237.661 227.57 237.676 238.994 237.676C250.418 237.676 250.418 237.69 250.418 237.705C250.418 237.71 250.418 237.725 250.418 237.735C250.418 237.754 250.418 237.772 250.417 237.791C250.417 237.829 250.416 237.866 250.416 237.901C250.414 237.973 250.412 238.039 250.409 238.103C250.403 238.231 250.395 238.342 250.386 238.441C250.368 238.637 250.345 238.779 250.326 238.873C250.288 239.063 250.267 239.052 250.345 238.888C250.463 238.634 251.09 237.402 253.362 235.779C258.146 232.361 270.515 227.05 299.923 227.05V204.77ZM415.56 287.226C440.451 290.782 463.67 272.597 463.67 247.794H440.822C440.822 258.157 430.849 266.892 418.873 265.181L415.56 287.226ZM435.046 201.34C438.739 204.557 440.822 209.694 440.822 216.236H463.67C463.67 205.342 460.153 193.334 450.264 184.723L435.046 201.34ZM159.024 226.977C159.024 221.521 160.448 217.131 163.112 213.995L145.518 199.781C138.551 207.98 136.176 217.909 136.176 226.977H159.024ZM349.428 243.443C349.428 263.452 364.876 279.982 385.096 282.872L388.409 260.827C378.843 259.461 372.276 251.846 372.276 243.443H349.428ZM183.686 272.346C170.934 275.989 159.024 266.883 159.024 255.538H136.176C136.176 282.754 163.736 301.264 190.112 293.726L183.686 272.346ZM227.57 246.833C227.57 254.335 222.34 261.3 214.151 263.639L220.576 285.02C238.078 280.019 250.418 264.649 250.418 246.833H227.57Z" fill="#D95140"/>
</svg>
